<svg width="500" height="500" viewBox="0 0 500 500" fill="none" xmlns="http://www.w3.org/2000/svg">
<rect width="500" height="500" fill="white"/>
<path d="M100.588 67.8824L155 12V487L101.078 432.615C78.0392 409.164 78.0392 409.164 55 385.713C55 289.156 55 211.216 55 114.784C74.3992 94.8256 74.6078 94.611 100.588 67.8824Z" fill="url(#paint0_linear_7_61)"/>
<path d="M397.412 67.8824L343 12V487L396.922 432.615C419.961 409.164 419.961 409.164 443 385.713C443 289.156 443 211.216 443 114.784C423.601 94.8256 423.392 94.611 397.412 67.8824Z" fill="url(#paint1_linear_7_61)"/>
<rect x="52.7576" y="68.6069" width="21" height="534.199" transform="rotate(-45 52.7576 68.6069)" fill="url(#paint2_linear_7_61)"/>
<path d="M35 37C35 37 65.0119 38.9082 73.7494 47.5938C82.4868 56.2794 84.7077 61.3805 84.7077 61.3805C84.7077 61.3805 66.5783 54.8055 59.7451 61.598C52.9119 68.3906 59.2519 86.8364 59.2519 86.8364C59.2519 86.8364 52.9527 83.3212 45.4651 75.878C37.9775 68.4349 35 37 35 37Z" fill="url(#paint3_linear_7_61)"/>
<defs>
<linearGradient id="paint0_linear_7_61" x1="105" y1="12" x2="105" y2="487" gradientUnits="userSpaceOnUse">
<stop stop-color="#42B1E7"/>
<stop offset="1" stop-color="#3776C0"/>
</linearGradient>
<linearGradient id="paint1_linear_7_61" x1="393" y1="12" x2="393" y2="487" gradientUnits="userSpaceOnUse">
<stop stop-color="#7CB543"/>
<stop offset="1" stop-color="#428036"/>
</linearGradient>
<linearGradient id="paint2_linear_7_61" x1="73.8642" y1="375.941" x2="52.651" y2="375.941" gradientUnits="userSpaceOnUse">
<stop stop-color="#765054"/>
<stop offset="0.327832" stop-color="#775155"/>
<stop offset="1" stop-color="#38282A"/>
</linearGradient>
<linearGradient id="paint3_linear_7_61" x1="76.5349" y1="43.4238" x2="41.5349" y2="78.4238" gradientUnits="userSpaceOnUse">
<stop stop-color="#C2C2C2"/>
<stop offset="0.226011" stop-color="#BFBFBF"/>
<stop offset="0.485415" stop-color="#DEDEDE"/>
<stop offset="0.737808" stop-color="#BFBFBF"/>
<stop offset="1" stop-color="#BDBDBD"/>
</linearGradient>
</defs>
</svg>
