<svg width="267" height="315" viewBox="0 0 267 315" fill="none" xmlns="http://www.w3.org/2000/svg">
<path d="M43.6694 41.2477L43.6685 41.2486L14.8759 70.8705L14.4515 71.3071V71.916V72.2727V72.6292V72.9854V73.3413V73.697V74.0524V74.4075V74.7624V75.1171V75.4714V75.8255V76.1794V76.533V76.8864V77.2395V77.5923V77.9449V78.2972V78.6493V79.0012V79.3528V79.7042V80.0553V80.4062V80.7568V81.1072V81.4573V81.8072V82.1569V82.5063V82.8555V83.2045V83.5532V83.9017V84.25V84.598V84.9458V85.2934V85.6407V85.9879V86.3348V86.6814V87.0279V87.3741V87.7201V88.0659V88.4115V88.7568V89.102V89.4469V89.7916V90.1361V90.4803V90.8244V91.1683V91.5119V91.8553V92.1985V92.5416V92.8844V93.227V93.5694V93.9116V94.2536V94.5954V94.937V95.2784V95.6196V95.9606V96.3014V96.6421V96.9825V97.3227V97.6628V98.0026V98.3423V98.6818V99.0211V99.3602V99.6991V100.038V100.376V100.715V101.053V101.391V101.729V102.066V102.404V102.741V103.078V103.415V103.752V104.089V104.425V104.762V105.098V105.434V105.769V106.105V106.44V106.776V107.111V107.446V107.781V108.115V108.45V108.784V109.118V109.452V109.786V110.12V110.453V110.787V111.12V111.453V111.786V112.119V112.452V112.784V113.117V113.449V113.781V114.113V114.445V114.777V115.108V115.44V115.771V116.102V116.433V116.764V117.095V117.425V117.756V118.086V118.417V118.747V119.077V119.407V119.736V120.066V120.396V120.725V121.054V121.383V121.712V122.041V122.37V122.699V123.028V123.356V123.684V124.013V124.341V124.669V124.997V125.325V125.653V125.98V126.308V126.635V126.963V127.29V127.617V127.944V128.271V128.598V128.925V129.251V129.578V129.905V130.231V130.557V130.884V131.21V131.536V131.862V132.188V132.514V132.839V133.165V133.491V133.816V134.142V134.467V134.792V135.117V135.443V135.768V136.093V136.418V136.743V137.067V137.392V137.717V138.041V138.366V138.69V139.015V139.339V139.664V139.988V140.312V140.636V140.96V141.284V141.608V141.932V142.256V142.58V142.904V143.228V143.551V143.875V144.199V144.522V144.846V145.169V145.493V145.816V146.14V146.463V146.786V147.11V147.433V147.756V148.079V148.402V148.726V149.049V149.372V149.695V150.018V150.341V150.664V150.987V151.31V151.633V151.956V152.278V152.601V152.924V153.247V153.57V153.893V154.215V154.538V154.861V155.184V155.507V155.829V156.152V156.475V156.798V157.12V157.443V157.766V158.089V158.411V158.734V159.057V159.38V159.703V160.025V160.348V160.671V160.994V161.317V161.64V161.962V162.285V162.608V162.931V163.254V163.577V163.9V164.223V164.546V164.869V165.192V165.515V165.838V166.162V166.485V166.808V167.131V167.454V167.778V168.101V168.424V168.748V169.071V169.395V169.718V170.042V170.366V170.689V171.013V171.337V171.66V171.984V172.308V172.632V172.956V173.28V173.604V173.928V174.253V174.577V174.901V175.225V175.55V175.874V176.199V176.524V176.848V177.173V177.498V177.823V178.148V178.473V178.798V179.123V179.448V179.773V180.099V180.424V180.75V181.075V181.401V181.727V182.052V182.378V182.704V183.03V183.356V183.683V184.009V184.335V184.662V184.988V185.315V185.642V185.969V186.296V186.623V186.95V187.277V187.604V187.932V188.259V188.587V188.915V189.243V189.57V189.898V190.227V190.555V190.883V191.212V191.54V191.869V192.198V192.527V192.856V193.185V193.514V193.843V194.173V194.503V194.832V195.162V195.492V195.822V196.152V196.483V196.813V197.144V197.475V197.805V198.136V198.468V198.799V199.13V199.462V199.793V200.125V200.457V200.789V201.121V201.454V201.786V202.119V202.452V202.785V203.118V203.451V203.784V204.118V204.452V204.785V205.119V205.454V205.788V206.122V206.457V206.792V207.127V207.462V207.797V208.132V208.468V208.804V209.14V209.476V209.812V210.148V210.485V210.822V211.158V211.496V211.833V212.17V212.508V212.846V213.184V213.522V213.86V214.199V214.537V214.876V215.215V215.554V215.894V216.233V216.573V216.913V217.253V217.594V217.934V218.275V218.616V218.957V219.299V219.64V219.982V220.324V220.666V221.008V221.351V221.694V222.037V222.38V222.723V223.067V223.411V223.755V224.099V224.443V224.788V225.133V225.478V225.823V226.169V226.514V226.86V227.206V227.553V227.899V228.246V228.593V228.941V229.288V229.636V229.984V230.332V230.68V231.029V231.378V231.727V232.076V232.426V232.776V233.126V233.476V233.827V234.178V234.529V234.88V235.232V235.583V235.935V236.288V236.64V236.993V237.346V237.699V238.053V238.407V238.761V239.115V239.469V239.824V240.179V240.535V240.89V241.246V241.602V241.959V242.315V242.672V243.029V243.643L14.8815 244.081L15.0514 244.254L15.1358 244.339L15.2199 244.425L15.3037 244.51L15.3871 244.595L15.5531 244.764L15.6355 244.848L15.7177 244.932L15.8811 245.098L16.0431 245.263L16.1237 245.345L16.204 245.427L16.3635 245.589L16.4429 245.67L16.5219 245.75L16.6006 245.83L16.679 245.91L16.7571 245.99L16.8349 246.069L16.9124 246.148L16.9895 246.226L17.0664 246.305L17.143 246.383L17.2953 246.538L17.371 246.615L17.4464 246.691L17.5964 246.844L17.6709 246.92L17.7452 246.995L17.8192 247.071L17.8929 247.146L18.0394 247.295L18.1122 247.369L18.1848 247.443L18.2571 247.516L18.3291 247.59L18.4722 247.735L18.5434 247.808L18.6143 247.88L18.685 247.952L18.7553 248.024L18.8254 248.095L18.8953 248.166L18.9648 248.237L19.0341 248.307L19.1032 248.378L19.172 248.448L19.2405 248.517L19.3087 248.587L19.3768 248.656L19.4445 248.725L19.512 248.794L19.5792 248.862L19.6462 248.93L19.7129 248.998L19.7794 249.066L19.8457 249.133L19.9117 249.201L19.9774 249.268L20.0429 249.334L20.1082 249.401L20.1732 249.467L20.2379 249.533L20.3025 249.598L20.3668 249.664L20.4947 249.794L20.5582 249.859L20.6216 249.923L20.6847 249.987L20.7476 250.051L20.8103 250.115L20.8727 250.179L20.9349 250.242L20.9969 250.305L21.1202 250.431L21.2426 250.555L21.3642 250.679L21.4849 250.802L21.6047 250.924L21.7237 251.045L21.7828 251.105L21.8418 251.165L21.9006 251.225L21.9591 251.285L22.0175 251.344L22.0757 251.403L22.1336 251.462L22.1914 251.521L22.2489 251.58L22.3063 251.638L22.3635 251.696L22.4204 251.754L22.5338 251.87L22.6464 251.984L22.7025 252.041L22.7583 252.098L22.8694 252.211L22.9798 252.324L23.0347 252.379L23.0895 252.435L23.1985 252.546L23.3067 252.656L23.3606 252.711L23.4143 252.766L23.5212 252.875L23.5744 252.929L23.6275 252.983L23.6804 253.037L23.7331 253.09L23.838 253.197L23.9423 253.303L23.9942 253.356L24.046 253.409L24.0976 253.461L24.1491 253.514L24.2515 253.618L24.3534 253.722L24.4547 253.825L24.5554 253.927L24.6056 253.978L24.6556 254.029L24.7054 254.08L24.7552 254.131L24.8048 254.181L24.8542 254.231L24.9036 254.282L24.9528 254.332L25.0508 254.432L25.1483 254.531L25.2453 254.629L25.2936 254.679L25.3418 254.728L25.3899 254.777L25.4378 254.825L25.4857 254.874L25.5334 254.923L25.581 254.971L25.6285 255.02L25.6759 255.068L25.7232 255.116L25.8174 255.212L25.9112 255.307L25.9579 255.355L26.0046 255.402L26.0975 255.497L26.1439 255.544L26.1901 255.591L26.2363 255.638L26.2823 255.685L26.3283 255.732L26.3741 255.778L26.4199 255.825L26.4656 255.872L26.5112 255.918L26.5567 255.964L26.6021 256.011L26.6474 256.057L26.7379 256.149L26.783 256.195L26.828 256.24L26.8729 256.286L26.9178 256.332L27.0073 256.423L27.0519 256.468L27.0964 256.514L27.1854 256.604L27.274 256.694L27.3182 256.739L27.3624 256.784L27.4505 256.874L27.5384 256.964L27.5823 257.008L27.6261 257.053L27.6698 257.097L27.7135 257.142L27.7572 257.186L27.8008 257.231L27.8443 257.275L27.8878 257.319L27.9747 257.408L28.0613 257.496L28.1479 257.584L28.1911 257.628L28.2342 257.672L28.3204 257.76L28.4065 257.847L28.4495 257.891L28.4924 257.935L28.5783 258.022L28.664 258.109L28.7496 258.196L28.7924 258.24L28.8352 258.283L28.9207 258.37L28.9634 258.414L29.0061 258.457L29.0488 258.501L29.0915 258.544L29.1341 258.588L29.1768 258.631L29.2194 258.675L29.2621 258.718L29.3047 258.761L29.3474 258.805L29.4326 258.892L29.5179 258.978L29.5605 259.022L29.6032 259.065L29.6458 259.109L29.6884 259.152L29.7738 259.239L29.8164 259.282L29.8591 259.326L29.9446 259.413L30.03 259.5L30.1156 259.587L30.2012 259.674L30.287 259.761L30.3299 259.805L30.3728 259.849L30.4157 259.892L30.4587 259.936L30.5018 259.98L30.5448 260.024L30.5879 260.067L30.631 260.111L30.7174 260.199L30.8039 260.287L30.8906 260.376L30.934 260.42L30.9774 260.464L31.0645 260.553L31.1517 260.641L31.2391 260.73L31.3268 260.82L31.4147 260.909L31.4587 260.954L31.5028 260.999L31.547 261.044L31.5912 261.089L31.6799 261.179L31.7243 261.224L31.7688 261.269L31.8133 261.315L31.858 261.36L31.9027 261.406L31.9475 261.451L31.9923 261.497L32.0373 261.543L32.0823 261.589L32.1274 261.634L32.1725 261.68L32.2178 261.726L32.3085 261.819L32.354 261.865L32.3996 261.912L32.4453 261.958L32.4911 262.005L32.5829 262.098L32.6751 262.192L32.7214 262.239L32.7677 262.286L32.8607 262.381L32.9073 262.428L32.954 262.476L33.0478 262.571L33.1421 262.667L33.1893 262.715L33.2367 262.764L33.2842 262.812L33.3318 262.86L33.3796 262.909L33.4274 262.958L33.4754 263.007L33.5234 263.055L33.6199 263.154L33.7169 263.252L33.8144 263.352L33.8634 263.401L33.9125 263.451L33.9617 263.501L34.011 263.552L34.0605 263.602L34.1101 263.653L34.1598 263.703L34.2097 263.754L34.2597 263.805L34.3098 263.856L34.4105 263.958L34.5118 264.061L34.5627 264.113L34.6137 264.165L34.6649 264.217L34.7162 264.269L34.8192 264.374L34.9229 264.48L34.975 264.533L35.0272 264.586L35.0796 264.639L35.1322 264.693L35.1849 264.747L35.2378 264.8L35.2908 264.854L35.344 264.909L35.3974 264.963L35.4509 265.017L35.5585 265.127L35.6668 265.237L35.7212 265.292L35.7757 265.348L35.8305 265.404L35.8854 265.46L35.9405 265.516L35.9958 265.572L36.0513 265.628L36.1069 265.685L36.1628 265.742L36.2188 265.799L36.3314 265.914L36.388 265.971L36.4448 266.029L36.5589 266.145L36.6163 266.204L36.6739 266.262L36.7316 266.321L36.7896 266.38L36.9061 266.499L37.0234 266.618L37.0824 266.678L37.1416 266.738L37.201 266.799L37.2605 266.859L37.3204 266.92L37.3804 266.981L37.4406 267.043L37.5011 267.104L37.5617 267.166L37.6226 267.228L37.6837 267.29L37.745 267.352L37.8066 267.415L37.8683 267.478L37.9303 267.541L37.9925 267.604L38.055 267.668L38.1176 267.732L38.1805 267.796L38.2436 267.86L38.307 267.924L38.3706 267.989L38.4985 268.119L38.6273 268.25L38.6921 268.316L38.7571 268.383L38.8878 268.516L38.9536 268.583L39.0196 268.65L39.0858 268.717L39.1523 268.785L39.219 268.853L39.286 268.921L39.3532 268.989L39.4207 269.058L39.4885 269.127L39.5565 269.196L39.6933 269.335L39.8311 269.476L39.9004 269.546L39.97 269.617L40.0398 269.688L40.1099 269.76L40.1803 269.831L40.2509 269.903L40.3218 269.975L40.393 270.048L40.4644 270.12L40.5362 270.193L40.6805 270.34L40.753 270.414L40.8259 270.488L40.899 270.563L40.9724 270.637L41.12 270.788L41.1943 270.863L41.2688 270.939L41.3437 271.015L41.4188 271.092L41.4942 271.169L41.5699 271.246L41.7222 271.401L41.7988 271.479L41.8757 271.557L41.9529 271.635L42.0304 271.714L42.1863 271.873L42.2647 271.953L42.3434 272.033L42.4224 272.113L42.5017 272.194L42.6613 272.356L42.7415 272.438L42.8221 272.52L42.903 272.602L42.9842 272.685L43.1475 272.851L43.2297 272.935L43.3122 273.019L43.395 273.103L43.4781 273.188L43.6453 273.358L43.7294 273.444L43.8138 273.53L43.8986 273.616L43.9837 273.703L43.9885 273.707L78.0442 308.056L80.6094 310.643V307V7V3.30928L78.0347 5.95358L43.6694 41.2477Z" fill="url(#paint0_linear_8_38)" stroke="white" stroke-width="3"/>
<path d="M233.286 41.2477L233.287 41.2486L262.08 70.8705L262.504 71.3071V71.916V72.2727V72.6292V72.9854V73.3413V73.697V74.0524V74.4075V74.7624V75.1171V75.4714V75.8255V76.1794V76.533V76.8864V77.2395V77.5923V77.9449V78.2972V78.6493V79.0012V79.3528V79.7042V80.0553V80.4062V80.7568V81.1072V81.4573V81.8072V82.1569V82.5063V82.8555V83.2045V83.5532V83.9017V84.25V84.598V84.9458V85.2934V85.6407V85.9879V86.3348V86.6814V87.0279V87.3741V87.7201V88.0659V88.4115V88.7568V89.102V89.4469V89.7916V90.1361V90.4803V90.8244V91.1683V91.5119V91.8553V92.1985V92.5416V92.8844V93.227V93.5694V93.9116V94.2536V94.5954V94.937V95.2784V95.6196V95.9606V96.3014V96.6421V96.9825V97.3227V97.6628V98.0026V98.3423V98.6818V99.0211V99.3602V99.6991V100.038V100.376V100.715V101.053V101.391V101.729V102.066V102.404V102.741V103.078V103.415V103.752V104.089V104.425V104.762V105.098V105.434V105.769V106.105V106.44V106.776V107.111V107.446V107.781V108.115V108.45V108.784V109.118V109.452V109.786V110.12V110.453V110.787V111.12V111.453V111.786V112.119V112.452V112.784V113.117V113.449V113.781V114.113V114.445V114.777V115.108V115.44V115.771V116.102V116.433V116.764V117.095V117.425V117.756V118.086V118.417V118.747V119.077V119.407V119.736V120.066V120.396V120.725V121.054V121.383V121.712V122.041V122.37V122.699V123.028V123.356V123.684V124.013V124.341V124.669V124.997V125.325V125.653V125.98V126.308V126.635V126.963V127.29V127.617V127.944V128.271V128.598V128.925V129.251V129.578V129.905V130.231V130.557V130.884V131.21V131.536V131.862V132.188V132.514V132.839V133.165V133.491V133.816V134.142V134.467V134.792V135.117V135.443V135.768V136.093V136.418V136.743V137.067V137.392V137.717V138.041V138.366V138.69V139.015V139.339V139.664V139.988V140.312V140.636V140.96V141.284V141.608V141.932V142.256V142.58V142.904V143.228V143.551V143.875V144.199V144.522V144.846V145.169V145.493V145.816V146.14V146.463V146.786V147.11V147.433V147.756V148.079V148.402V148.726V149.049V149.372V149.695V150.018V150.341V150.664V150.987V151.31V151.633V151.956V152.278V152.601V152.924V153.247V153.57V153.893V154.215V154.538V154.861V155.184V155.507V155.829V156.152V156.475V156.798V157.12V157.443V157.766V158.089V158.411V158.734V159.057V159.38V159.703V160.025V160.348V160.671V160.994V161.317V161.64V161.962V162.285V162.608V162.931V163.254V163.577V163.9V164.223V164.546V164.869V165.192V165.515V165.838V166.162V166.485V166.808V167.131V167.454V167.778V168.101V168.424V168.748V169.071V169.395V169.718V170.042V170.366V170.689V171.013V171.337V171.66V171.984V172.308V172.632V172.956V173.28V173.604V173.928V174.253V174.577V174.901V175.225V175.55V175.874V176.199V176.524V176.848V177.173V177.498V177.823V178.148V178.473V178.798V179.123V179.448V179.773V180.099V180.424V180.75V181.075V181.401V181.727V182.052V182.378V182.704V183.03V183.356V183.683V184.009V184.335V184.662V184.988V185.315V185.642V185.969V186.296V186.623V186.95V187.277V187.604V187.932V188.259V188.587V188.915V189.243V189.57V189.898V190.227V190.555V190.883V191.212V191.54V191.869V192.198V192.527V192.856V193.185V193.514V193.843V194.173V194.503V194.832V195.162V195.492V195.822V196.152V196.483V196.813V197.144V197.475V197.805V198.136V198.468V198.799V199.13V199.462V199.793V200.125V200.457V200.789V201.121V201.454V201.786V202.119V202.452V202.785V203.118V203.451V203.784V204.118V204.452V204.785V205.119V205.454V205.788V206.122V206.457V206.792V207.127V207.462V207.797V208.132V208.468V208.804V209.14V209.476V209.812V210.148V210.485V210.822V211.158V211.496V211.833V212.17V212.508V212.846V213.184V213.522V213.86V214.199V214.537V214.876V215.215V215.554V215.894V216.233V216.573V216.913V217.253V217.594V217.934V218.275V218.616V218.957V219.299V219.64V219.982V220.324V220.666V221.008V221.351V221.694V222.037V222.38V222.723V223.067V223.411V223.755V224.099V224.443V224.788V225.133V225.478V225.823V226.169V226.514V226.86V227.206V227.553V227.899V228.246V228.593V228.941V229.288V229.636V229.984V230.332V230.68V231.029V231.378V231.727V232.076V232.426V232.776V233.126V233.476V233.827V234.178V234.529V234.88V235.232V235.583V235.935V236.288V236.64V236.993V237.346V237.699V238.053V238.407V238.761V239.115V239.469V239.824V240.179V240.535V240.89V241.246V241.602V241.959V242.315V242.672V243.029V243.643L262.074 244.081L261.904 244.254L261.82 244.339L261.736 244.425L261.652 244.51L261.569 244.595L261.403 244.764L261.32 244.848L261.238 244.932L261.075 245.098L260.913 245.263L260.832 245.345L260.752 245.427L260.592 245.589L260.513 245.67L260.434 245.75L260.355 245.83L260.277 245.91L260.199 245.99L260.121 246.069L260.043 246.148L259.966 246.226L259.889 246.305L259.813 246.383L259.66 246.538L259.585 246.615L259.509 246.691L259.359 246.844L259.285 246.92L259.21 246.995L259.137 247.071L259.063 247.146L258.916 247.295L258.843 247.369L258.771 247.443L258.699 247.516L258.627 247.59L258.483 247.735L258.412 247.808L258.341 247.88L258.271 247.952L258.2 248.024L258.13 248.095L258.06 248.166L257.991 248.237L257.922 248.307L257.853 248.378L257.784 248.448L257.715 248.517L257.647 248.587L257.579 248.656L257.511 248.725L257.444 248.794L257.376 248.862L257.309 248.93L257.243 248.998L257.176 249.066L257.11 249.133L257.044 249.201L256.978 249.268L256.913 249.334L256.848 249.401L256.783 249.467L256.718 249.533L256.653 249.598L256.589 249.664L256.461 249.794L256.397 249.859L256.334 249.923L256.271 249.987L256.208 250.051L256.145 250.115L256.083 250.179L256.021 250.242L255.959 250.305L255.835 250.431L255.713 250.555L255.592 250.679L255.471 250.802L255.351 250.924L255.232 251.045L255.173 251.105L255.114 251.165L255.055 251.225L254.997 251.285L254.938 251.344L254.88 251.403L254.822 251.462L254.764 251.521L254.707 251.58L254.649 251.638L254.592 251.696L254.535 251.754L254.422 251.87L254.309 251.984L254.253 252.041L254.197 252.098L254.086 252.211L253.976 252.324L253.921 252.379L253.866 252.435L253.757 252.546L253.649 252.656L253.595 252.711L253.541 252.766L253.434 252.875L253.381 252.929L253.328 252.983L253.275 253.037L253.223 253.09L253.118 253.197L253.013 253.303L252.961 253.356L252.91 253.409L252.858 253.461L252.807 253.514L252.704 253.618L252.602 253.722L252.501 253.825L252.4 253.927L252.35 253.978L252.3 254.029L252.25 254.08L252.201 254.131L252.151 254.181L252.101 254.231L252.052 254.282L252.003 254.332L251.905 254.432L251.807 254.531L251.71 254.629L251.662 254.679L251.614 254.728L251.566 254.777L251.518 254.825L251.47 254.874L251.422 254.923L251.375 254.971L251.327 255.02L251.28 255.068L251.233 255.116L251.138 255.212L251.044 255.307L250.998 255.355L250.951 255.402L250.858 255.497L250.812 255.544L250.766 255.591L250.719 255.638L250.673 255.685L250.627 255.732L250.582 255.778L250.536 255.825L250.49 255.872L250.445 255.918L250.399 255.964L250.354 256.011L250.308 256.057L250.218 256.149L250.173 256.195L250.128 256.24L250.083 256.286L250.038 256.332L249.948 256.423L249.904 256.468L249.859 256.514L249.77 256.604L249.682 256.694L249.637 256.739L249.593 256.784L249.505 256.874L249.417 256.964L249.373 257.008L249.33 257.053L249.286 257.097L249.242 257.142L249.199 257.186L249.155 257.231L249.111 257.275L249.068 257.319L248.981 257.408L248.894 257.496L248.808 257.584L248.765 257.628L248.721 257.672L248.635 257.76L248.549 257.847L248.506 257.891L248.463 257.935L248.377 258.022L248.292 258.109L248.206 258.196L248.163 258.24L248.12 258.283L248.035 258.37L247.992 258.414L247.95 258.457L247.907 258.501L247.864 258.544L247.822 258.588L247.779 258.631L247.736 258.675L247.694 258.718L247.651 258.761L247.608 258.805L247.523 258.892L247.438 258.978L247.395 259.022L247.353 259.065L247.31 259.109L247.267 259.152L247.182 259.239L247.139 259.282L247.097 259.326L247.011 259.413L246.926 259.5L246.84 259.587L246.754 259.674L246.669 259.761L246.626 259.805L246.583 259.849L246.54 259.892L246.497 259.936L246.454 259.98L246.411 260.024L246.368 260.067L246.325 260.111L246.238 260.199L246.152 260.287L246.065 260.376L246.022 260.42L245.978 260.464L245.891 260.553L245.804 260.641L245.717 260.73L245.629 260.82L245.541 260.909L245.497 260.954L245.453 260.999L245.409 261.044L245.364 261.089L245.276 261.179L245.231 261.224L245.187 261.269L245.142 261.315L245.098 261.36L245.053 261.406L245.008 261.451L244.963 261.497L244.918 261.543L244.873 261.589L244.828 261.634L244.783 261.68L244.738 261.726L244.647 261.819L244.602 261.865L244.556 261.912L244.51 261.958L244.465 262.005L244.373 262.098L244.281 262.192L244.234 262.239L244.188 262.286L244.095 262.381L244.048 262.428L244.002 262.476L243.908 262.571L243.814 262.667L243.766 262.715L243.719 262.764L243.671 262.812L243.624 262.86L243.576 262.909L243.528 262.958L243.48 263.007L243.432 263.055L243.336 263.154L243.239 263.252L243.141 263.352L243.092 263.401L243.043 263.451L242.994 263.501L242.945 263.552L242.895 263.602L242.846 263.653L242.796 263.703L242.746 263.754L242.696 263.805L242.646 263.856L242.545 263.958L242.444 264.061L242.393 264.113L242.342 264.165L242.291 264.217L242.24 264.269L242.136 264.374L242.033 264.48L241.981 264.533L241.928 264.586L241.876 264.639L241.824 264.693L241.771 264.747L241.718 264.8L241.665 264.854L241.612 264.909L241.558 264.963L241.505 265.017L241.397 265.127L241.289 265.237L241.235 265.292L241.18 265.348L241.125 265.404L241.07 265.46L241.015 265.516L240.96 265.572L240.904 265.628L240.849 265.685L240.793 265.742L240.737 265.799L240.624 265.914L240.568 265.971L240.511 266.029L240.397 266.145L240.339 266.204L240.282 266.262L240.224 266.321L240.166 266.38L240.05 266.499L239.932 266.618L239.873 266.678L239.814 266.738L239.755 266.799L239.695 266.859L239.635 266.92L239.575 266.981L239.515 267.043L239.455 267.104L239.394 267.166L239.333 267.228L239.272 267.29L239.211 267.352L239.149 267.415L239.087 267.478L239.025 267.541L238.963 267.604L238.901 267.668L238.838 267.732L238.775 267.796L238.712 267.86L238.649 267.924L238.585 267.989L238.457 268.119L238.328 268.25L238.264 268.316L238.199 268.383L238.068 268.516L238.002 268.583L237.936 268.65L237.87 268.717L237.803 268.785L237.737 268.853L237.67 268.921L237.602 268.989L237.535 269.058L237.467 269.127L237.399 269.196L237.262 269.335L237.125 269.476L237.055 269.546L236.986 269.617L236.916 269.688L236.846 269.76L236.775 269.831L236.705 269.903L236.634 269.975L236.563 270.048L236.491 270.12L236.42 270.193L236.275 270.34L236.203 270.414L236.13 270.488L236.057 270.563L235.983 270.637L235.836 270.788L235.761 270.863L235.687 270.939L235.612 271.015L235.537 271.092L235.461 271.169L235.386 271.246L235.233 271.401L235.157 271.479L235.08 271.557L235.003 271.635L234.925 271.714L234.769 271.873L234.691 271.953L234.612 272.033L234.533 272.113L234.454 272.194L234.294 272.356L234.214 272.438L234.134 272.52L234.053 272.602L233.972 272.685L233.808 272.851L233.726 272.935L233.644 273.019L233.561 273.103L233.478 273.188L233.31 273.358L233.226 273.444L233.142 273.53L233.057 273.616L232.972 273.703L232.967 273.707L198.911 308.056L196.346 310.643V307V7V3.30928L198.921 5.95358L233.286 41.2477Z" fill="url(#paint1_linear_8_38)" stroke="white" stroke-width="3"/>
<rect x="12.414" y="42.7517" width="16.2632" height="340.389" transform="rotate(-45 12.414 42.7517)" fill="url(#paint2_linear_8_38)" stroke="white" stroke-width="3"/>
<path d="M3.31995 22.7895L3.41513 21.2925L1.66088 21.181L1.82663 22.9309L3.31995 22.7895ZM3.31995 22.7895C3.41513 21.2925 3.4154 21.2925 3.41574 21.2925L3.41678 21.2926L3.42017 21.2928L3.43208 21.2936L3.47615 21.2965C3.5144 21.2991 3.57024 21.303 3.64267 21.3083C3.78752 21.3188 3.9988 21.3348 4.26858 21.3571C4.80802 21.4016 5.58199 21.4712 6.52693 21.572C8.4148 21.7733 10.9949 22.1 13.7555 22.602C16.5101 23.1028 19.4791 23.7842 22.1322 24.7032C24.7467 25.6089 27.227 26.8024 28.8507 28.4165C31.6691 31.2181 33.4581 33.4632 34.5533 35.0328C35.1008 35.8175 35.4747 36.433 35.7168 36.8642C35.8379 37.0798 35.926 37.2493 35.9864 37.3707C36.0166 37.4314 36.0398 37.4801 36.0568 37.5166C36.0614 37.5266 36.0656 37.5356 36.0693 37.5438C36.0724 37.5505 36.0752 37.5566 36.0777 37.5621L36.0847 37.5778L36.0874 37.584L36.0886 37.5866L36.0891 37.5878C36.0894 37.5884 36.0896 37.589 34.7143 38.1877L36.0896 37.589L37.4819 40.7871L34.2036 39.5981L34.2034 39.598L34.2033 39.598L34.2029 39.5978L34.1996 39.5967L34.1801 39.5897C34.1619 39.5833 34.1331 39.5731 34.0944 39.5597C34.0169 39.533 33.8998 39.4931 33.7475 39.4433C33.4427 39.3436 32.9983 39.2043 32.45 39.0494C31.3497 38.7386 29.8493 38.3704 28.2308 38.1316C26.6024 37.8913 24.9156 37.7915 23.422 37.9817C21.9176 38.1733 20.7607 38.6386 20.0059 39.3889C19.2515 40.1388 18.7735 41.3039 18.5653 42.8285C18.3589 44.3403 18.4398 46.0518 18.661 47.7049C18.881 49.348 19.2311 50.8735 19.5284 51.9926C19.6766 52.5504 19.8104 53.0028 19.9064 53.3131C19.9543 53.4682 19.9927 53.5876 20.0186 53.6666C20.0315 53.7061 20.0413 53.7354 20.0476 53.7541L20.0543 53.7741L20.0555 53.7775L20.0556 53.7779L20.0556 53.778L20.0557 53.7782L21.33 57.4857L17.906 55.5749L18.6369 54.2651C17.906 55.5749 17.9057 55.5748 17.9054 55.5746L17.9048 55.5743L17.9032 55.5734L17.899 55.571L17.8862 55.5638L17.8437 55.5396C17.8078 55.519 17.7572 55.4895 17.6924 55.4512C17.563 55.3745 17.3773 55.2622 17.1417 55.1138C16.6706 54.817 15.9996 54.3752 15.1797 53.7844C13.5404 52.6032 11.3012 50.8226 8.87199 48.4078C7.4216 46.9661 6.32874 44.5472 5.47874 41.9988C4.6078 39.3876 3.91473 36.393 3.37801 33.5856C2.84005 30.7717 2.45277 28.1117 2.20005 26.1574C2.07358 25.1794 1.98052 24.3759 1.91896 23.8156C1.88817 23.5354 1.86525 23.3159 1.84994 23.1656C1.84229 23.0904 1.83654 23.0326 1.83266 22.9931L1.82825 22.9479L1.8271 22.9358L1.82678 22.9325L1.82668 22.9315C1.82665 22.9312 1.82663 22.9309 3.31995 22.7895Z" fill="url(#paint3_linear_8_38)" stroke="white" stroke-width="3"/>
<path d="M44.7591 42.2941L79.1244 7V307L45.0687 272.651C30.5176 257.84 30.5176 257.84 15.9666 243.029C15.9666 182.046 15.9666 132.821 15.9666 71.916C28.2187 59.3109 28.3505 59.1754 44.7591 42.2941Z" fill="url(#paint4_linear_8_38)"/>
<path d="M232.227 42.2941L197.861 7V307L231.917 272.651C246.468 257.84 246.468 257.84 261.019 243.029C261.019 182.046 261.019 132.821 261.019 71.916C248.767 59.3109 248.635 59.1754 232.227 42.2941Z" fill="url(#paint5_linear_8_38)"/>
<rect x="14.5503" y="42.7517" width="13.2632" height="337.389" transform="rotate(-45 14.5503 42.7517)" fill="url(#paint6_linear_8_38)"/>
<path d="M3.33496 22.7895C3.33496 22.7895 22.2898 23.9946 27.8082 29.4803C33.3267 34.9659 34.7293 38.1877 34.7293 38.1877C34.7293 38.1877 23.2791 34.035 18.9635 38.3251C14.6478 42.6151 18.6519 54.2651 18.6519 54.2651C18.6519 54.2651 14.6735 52.045 9.9445 47.344C5.21546 42.6431 3.33496 22.7895 3.33496 22.7895Z" fill="url(#paint7_linear_8_38)"/>
<defs>
<linearGradient id="paint0_linear_8_38" x1="47.5305" y1="7" x2="47.5305" y2="307" gradientUnits="userSpaceOnUse">
<stop stop-color="#42B1E7"/>
<stop offset="1" stop-color="#3776C0"/>
</linearGradient>
<linearGradient id="paint1_linear_8_38" x1="229.425" y1="7" x2="229.425" y2="307" gradientUnits="userSpaceOnUse">
<stop stop-color="#7CB543"/>
<stop offset="1" stop-color="#428036"/>
</linearGradient>
<linearGradient id="paint2_linear_8_38" x1="27.8658" y1="236.857" x2="14.468" y2="236.857" gradientUnits="userSpaceOnUse">
<stop stop-color="#765054"/>
<stop offset="0.327832" stop-color="#775155"/>
<stop offset="1" stop-color="#38282A"/>
</linearGradient>
<linearGradient id="paint3_linear_8_38" x1="29.5525" y1="26.8466" x2="7.44727" y2="48.9519" gradientUnits="userSpaceOnUse">
<stop stop-color="#C2C2C2"/>
<stop offset="0.226011" stop-color="#BFBFBF"/>
<stop offset="0.485415" stop-color="#DEDEDE"/>
<stop offset="0.737808" stop-color="#BFBFBF"/>
<stop offset="1" stop-color="#BDBDBD"/>
</linearGradient>
<linearGradient id="paint4_linear_8_38" x1="47.5455" y1="7" x2="47.5455" y2="307" gradientUnits="userSpaceOnUse">
<stop stop-color="#42B1E7"/>
<stop offset="1" stop-color="#3776C0"/>
</linearGradient>
<linearGradient id="paint5_linear_8_38" x1="229.44" y1="7" x2="229.44" y2="307" gradientUnits="userSpaceOnUse">
<stop stop-color="#7CB543"/>
<stop offset="1" stop-color="#428036"/>
</linearGradient>
<linearGradient id="paint6_linear_8_38" x1="27.8808" y1="236.857" x2="14.483" y2="236.857" gradientUnits="userSpaceOnUse">
<stop stop-color="#765054"/>
<stop offset="0.327832" stop-color="#775155"/>
<stop offset="1" stop-color="#38282A"/>
</linearGradient>
<linearGradient id="paint7_linear_8_38" x1="29.5676" y1="26.8466" x2="7.46229" y2="48.9519" gradientUnits="userSpaceOnUse">
<stop stop-color="#C2C2C2"/>
<stop offset="0.226011" stop-color="#BFBFBF"/>
<stop offset="0.485415" stop-color="#DEDEDE"/>
<stop offset="0.737808" stop-color="#BFBFBF"/>
<stop offset="1" stop-color="#BDBDBD"/>
</linearGradient>
</defs>
</svg>
